<svg class="svg-icon"
    style="width: 1em; height: 1em;vertical-align: middle;fill: currentColor;overflow: hidden;"
    viewBox="0 0 1024 1024" version="1.1" xmlns="http://www.w3.org/2000/svg">
    <path
        d="M465.45645865 419.35478638H170.43521402c-67.31138733 0-122.10315118-54.79176385-122.10315118-122.10315118V124.33354173c0-67.31138733 54.79176385-122.10315118 122.10315118-122.10315118h172.91809346c67.31138733 0 122.10315118 54.79176385 122.10315117 122.10315118v295.02124465zM170.43521402 61.14626566c-34.907656 0-63.18727606 28.42690974-63.18727607 63.18727607v172.91809347c0 34.907656 28.42690974 63.18727606 63.18727607 63.18727606h236.10536952V124.33354173c0-34.907656-28.42690974-63.18727606-63.18727606-63.18727607H170.43521402zM556.92335477 420.23852452h309.16105469c59.65232355 0 107.96334115-48.3110176 107.96334115-107.96334117V111.07746983c0-59.65232355-48.3110176-107.96334115-107.96334115-107.96334114H664.73940623c-59.65232355 0-107.96334115 48.3110176-107.96334113 107.96334114v309.16105469zM343.35330748 927.94607833H170.43521402c-67.31138733 0-122.10315118-54.79176385-122.10315118-122.10315119V632.92483367c0-67.31138733 54.79176385-122.10315118 122.10315118-122.10315116h295.02124463v295.02124463c0 67.31138733-54.79176385 122.10315118-122.10315117 122.10315119zM170.43521402 569.73755762c-34.907656 0-63.18727606 28.42690974-63.18727607 63.18727605v172.91809347c0 34.907656 28.42690974 63.18727606 63.18727607 63.18727606h172.91809346c34.907656 0 63.18727606-28.42690974 63.18727606-63.18727606V569.73755762H170.43521402zM851.79730973 927.94607833H679.02650595c-67.31138733 0-122.10315118-54.79176385-122.10315118-122.10315119V510.82168251h295.02124465c67.31138733 0 122.10315118 54.79176385 122.10315119 122.10315116v172.91809347c0 67.31138733-54.79176385 122.10315118-122.25044088 122.10315119zM615.69194019 569.73755762v236.10536952c0 34.907656 28.42690974 63.18727606 63.18727608 63.18727606h172.91809346c34.907656 0 63.18727606-28.42690974 63.18727606-63.18727606V632.92483367c0-34.907656-28.42690974-63.18727606-63.18727606-63.18727605H615.69194019z" />
</svg>